<svg id="Capa_1" enable-background="new 0 0 512 512" height="512" viewBox="0 0 512 512" width="512" xmlns="http://www.w3.org/2000/svg"><g><g><path d="m347.5 77c0-24.853-20.147-45-45-45h-250c-24.853 0-45 20.147-45 45v50c0 8.284 6.716 15 15 15h310c8.284 0 15-6.716 15-15z" fill="#9ee2f8"/><path d="m302.5 32h-125v110h155c8.284 0 15-6.716 15-15v-50c0-24.853-20.147-45-45-45z" fill="#8cbcff"/><path d="m7.5 127v340c0 24.813 20.187 45 45 45h250c24.813 0 45-20.187 45-45v-340z" fill="#fff5f5"/><g><path d="m177.5 127v385h125c24.813 0 45-20.187 45-45v-340z" fill="#e7f1f9"/></g><path d="m66.5 82c-8.284 0-15-6.716-15-15v-52c0-8.284 6.716-15 15-15s15 6.716 15 15v52c0 8.284-6.716 15-15 15z" fill="#fff5f5"/><path d="m140.5 82c-8.284 0-15-6.716-15-15v-52c0-8.284 6.716-15 15-15s15 6.716 15 15v52c0 8.284-6.716 15-15 15z" fill="#fff5f5"/><path d="m214.5 82c-8.284 0-15-6.716-15-15v-52c0-8.284 6.716-15 15-15s15 6.716 15 15v52c0 8.284-6.716 15-15 15z" fill="#e7f1f9"/><path d="m288.5 82c-8.284 0-15-6.716-15-15v-52c0-8.284 6.716-15 15-15s15 6.716 15 15v52c0 8.284-6.716 15-15 15z" fill="#e7f1f9"/><g fill="#5e54ac"><path d="m272.5 274.5h-190c-8.284 0-15-6.716-15-15s6.716-15 15-15h190c8.284 0 15 6.716 15 15s-6.716 15-15 15z"/><path d="m272.5 214.5h-190c-8.284 0-15-6.716-15-15s6.716-15 15-15h190c8.284 0 15 6.716 15 15s-6.716 15-15 15z"/><path d="m272.5 334.5h-190c-8.284 0-15-6.716-15-15s6.716-15 15-15h190c8.284 0 15 6.716 15 15s-6.716 15-15 15z"/><path d="m272.5 394.5h-190c-8.284 0-15-6.716-15-15s6.716-15 15-15h190c8.284 0 15 6.716 15 15s-6.716 15-15 15z"/><path d="m237.5 454.5h-155c-8.284 0-15-6.716-15-15s6.716-15 15-15h155c8.284 0 15 6.716 15 15s-6.716 15-15 15z"/></g><g><g fill="#453d81"><path d="m272.5 274.5c8.284 0 15-6.716 15-15s-6.716-15-15-15h-95v30z"/><path d="m272.5 214.5c8.284 0 15-6.716 15-15s-6.716-15-15-15h-95v30z"/><path d="m272.5 334.5c8.284 0 15-6.716 15-15s-6.716-15-15-15h-95v30z"/><path d="m272.5 394.5c8.284 0 15-6.716 15-15s-6.716-15-15-15h-95v30z"/><path d="m237.5 454.5c8.284 0 15-6.716 15-15s-6.716-15-15-15h-60v30z"/></g></g></g><g><path d="m439.5 242c-8.284 0-15 6.716-15 15s6.716 15 15 15h50v-30z" fill="#b1d5f1"/><path d="m439.5 132c-8.284 0-15 6.716-15 15s6.716 15 15 15h50v-30z" fill="#b1d5f1"/><path d="m489.5 322c-8.284 0-15-6.716-15-15v-180c0-8.284 6.716-15 15-15s15 6.716 15 15v180c0 8.284-6.716 15-15 15z" fill="#e7f1f9"/><g><path d="m379.5 117v280c0 8.284 6.716 15 15 15h40c8.284 0 15-6.716 15-15v-280c0-8.284-6.716-15-15-15h-40c-8.284 0-15 6.716-15 15z" fill="#ff80aa"/><path d="m434.5 102h-20v310h20c8.284 0 15-6.716 15-15v-280c0-8.284-6.716-15-15-15z" fill="#ff3c7d"/><path d="m449.5 77c0-19.33-15.67-35-35-35-19.33 0-35 15.67-35 35v40h70z" fill="#9ee2f8"/><path d="m379.5 410.944c0 26.559 7.787 52.278 22.519 74.376 2.782 4.173 7.466 6.68 12.481 6.68s9.699-2.506 12.481-6.68c14.732-22.098 22.519-47.817 22.519-74.376v-13.944h-70z" fill="#fff5f5"/><path d="m426.981 485.32c14.732-22.098 22.519-47.817 22.519-74.376v-13.944h-35v95c5.015 0 9.699-2.506 12.481-6.68z" fill="#e7f1f9"/></g><path d="m399.5 481.387v15.613c0 8.284 6.716 15 15 15s15-6.716 15-15v-15.613z" fill="#9ee2f8"/><g><g><path d="m449.5 77c0-19.33-15.67-35-35-35v75h35z" fill="#8cbcff"/></g><g><path d="m429.5 497v-15.613h-15v30.613c8.284 0 15-6.716 15-15z" fill="#8cbcff"/></g></g></g></g></svg>