<svg id="Layer_1" enable-background="new 0 0 512.002 512.002" height="512" viewBox="0 0 512.002 512.002" width="512" xmlns="http://www.w3.org/2000/svg"><g><g clip-rule="evenodd" fill-rule="evenodd"><path d="m98.478 429.595c0-11.786-9.643-21.428-21.428-21.428-11.786 0-21.429 9.643-21.429 21.428v10.715c0 11.786 9.643 21.428 21.429 21.428s21.428-9.643 21.428-21.428z" fill="#ffdcd5"/><path d="m93.055 454.52c-3.933 4.422-9.658 7.218-16.005 7.218-6.372 0-12.118-2.819-16.052-7.271l-.597.482c-12.33 6.16-20.851 18.92-20.851 33.574v2.02c10.704 7.235 23.609 11.459 37.5 11.459 13.892 0 26.797-4.225 37.5-11.46v-2.019c0-14.634-8.498-27.38-20.802-33.55z" fill="#b278d3"/><path d="m60.998 454.467c-3.342-3.783-5.377-8.744-5.377-14.158v-10.715c0-11.786 9.643-21.428 21.429-21.428s21.428 9.643 21.428 21.428v10.715c0 5.439-2.053 10.421-5.423 14.21l.693.454c12.304 6.169 20.802 18.915 20.802 33.55v2.019c17.828-12.051 29.549-32.452 29.549-55.59 0-37.03-30.019-67.05-67.049-67.05s-67.05 30.02-67.05 67.05c0 23.139 11.721 43.54 29.549 55.59v-2.02c0-14.655 8.521-27.414 20.851-33.574z" fill="#fff"/><path d="m98.478 71.692c0-11.786-9.643-21.428-21.428-21.428-11.786 0-21.429 9.643-21.429 21.428v10.715c0 11.786 9.643 21.428 21.429 21.428s21.428-9.643 21.428-21.428z" fill="#ffdcd5"/><path d="m93.055 96.617c-3.933 4.422-9.658 7.218-16.005 7.218-6.372 0-12.118-2.818-16.052-7.271l-.597.482c-12.33 6.16-20.851 18.92-20.851 33.574v2.02c10.704 7.235 23.609 11.459 37.5 11.459 13.892 0 26.797-4.225 37.5-11.46v-2.019c0-14.634-8.498-27.38-20.802-33.55z" fill="#ff5d7d"/><path d="m60.998 96.565c-3.342-3.783-5.377-8.744-5.377-14.158v-10.715c0-11.786 9.643-21.428 21.429-21.428s21.428 9.643 21.428 21.428v10.715c0 5.439-2.053 10.421-5.423 14.21l.693.454c12.304 6.169 20.802 18.916 20.802 33.55v2.019c17.828-12.051 29.549-32.451 29.549-55.59 0-37.03-30.019-67.05-67.049-67.05s-67.05 30.019-67.05 67.05c0 23.139 11.721 43.54 29.549 55.591v-2.02c0-14.655 8.521-27.414 20.851-33.574z" fill="#fff"/><path d="m98.478 250.644c0-11.786-9.643-21.428-21.428-21.428-11.786 0-21.429 9.643-21.429 21.428v10.715c0 11.786 9.643 21.428 21.429 21.428s21.428-9.643 21.428-21.428z" fill="#ffdcd5"/><path d="m93.055 275.568c-3.933 4.422-9.658 7.218-16.005 7.218-6.372 0-12.118-2.819-16.052-7.271l-.597.482c-12.33 6.16-20.851 18.92-20.851 33.574v2.02c10.704 7.235 23.609 11.459 37.5 11.459 13.892 0 26.797-4.225 37.5-11.46v-2.019c0-14.634-8.498-27.38-20.802-33.55z" fill="#ffc144"/><path d="m60.998 275.516c-3.342-3.783-5.377-8.744-5.377-14.158v-10.715c0-11.786 9.643-21.428 21.429-21.428s21.428 9.643 21.428 21.428v10.715c0 5.439-2.053 10.421-5.423 14.21l.693.454c12.304 6.169 20.802 18.916 20.802 33.55v2.019c17.828-12.051 29.549-32.452 29.549-55.59 0-37.03-30.019-67.05-67.049-67.05s-67.05 30.02-67.05 67.05c0 23.139 11.721 43.54 29.549 55.591v-2.02c0-14.655 8.521-27.414 20.851-33.574z" fill="#fff"/><path d="m472.002 47.05h-334.973c4.524 9.027 7.07 19.216 7.07 30s-2.546 20.973-7.069 30h334.972c16.499 0 29.999-13.5 29.999-30 0-16.501-13.5-30-29.999-30z" fill="#ff9eb1"/><path d="m424.236 107.05v-60h-287.207c4.524 9.027 7.07 19.216 7.07 30s-2.546 20.973-7.069 30z" fill="#ff5d7d"/><path d="m472.002 226.001h-334.973c4.524 9.027 7.07 19.216 7.07 30s-2.546 20.973-7.069 30h334.972c16.499 0 29.999-13.5 29.999-30s-13.5-30-29.999-30z" fill="#ffda8f"/><path d="m275.236 286.001v-60h-138.207c4.524 9.027 7.07 19.216 7.07 30s-2.546 20.973-7.069 30z" fill="#ffc144"/><path d="m472.002 404.952h-334.973c4.524 9.027 7.07 19.216 7.07 30s-2.546 20.973-7.069 30h334.972c16.499 0 29.999-13.5 29.999-30s-13.5-30-29.999-30z" fill="#d1aee5"/><path d="m220.236 464.952v-60h-83.207c4.524 9.027 7.07 19.216 7.07 30s-2.546 20.973-7.069 30z" fill="#b278d3"/></g><g><path d="m77.05 154.099c27.848 0 52.291-14.852 65.829-37.049h87.353c5.523 0 10-4.477 10-10s-4.477-10-10-10h-78.781c1.717-6.382 2.648-13.083 2.648-20s-.931-13.618-2.648-20h262.786v40h-94.004c-5.522 0-10 4.477-10 10s4.478 10 10 10h151.77c22.056 0 40-17.944 40-40s-17.944-40-40-40h-329.124c-13.538-22.198-37.981-37.05-65.829-37.05-42.486 0-77.05 34.564-77.05 77.05s34.564 77.049 77.05 77.049zm414.952-77.049c0 11.028-8.972 20-20 20h-37.766v-40h37.766c11.028-.001 20 8.971 20 20zm-442.215 50.101c.94-7.164 4.741-13.751 10.444-18.215 4.867 3.096 10.634 4.899 16.818 4.899 6.191 0 11.965-1.807 16.836-4.91 5.769 4.461 9.52 10.975 10.436 18.221-8.107 4.431-17.399 6.953-27.271 6.953-9.868 0-19.158-2.52-27.263-6.948zm38.691-44.744c0 6.302-5.127 11.428-11.429 11.428-6.301 0-11.428-5.126-11.428-11.428v-10.715c0-6.302 5.127-11.429 11.428-11.429 6.302 0 11.429 5.127 11.429 11.429zm-11.428-62.407c31.457 0 57.049 25.592 57.049 57.05 0 13.666-4.835 26.222-12.878 36.057-3.053-7.707-8.103-14.513-14.724-19.726 1.278-3.418 1.981-7.115 1.981-10.974v-10.715c0-17.33-14.099-31.429-31.429-31.429s-31.428 14.099-31.428 31.429v10.714c0 3.858.703 7.555 1.981 10.973-6.622 5.212-11.672 12.018-14.724 19.726-8.043-9.834-12.878-22.389-12.878-36.055 0-31.458 25.593-57.05 57.05-57.05z"/><path d="m472.002 216.001h-329.123c-13.538-22.198-37.981-37.049-65.829-37.049-42.486 0-77.05 34.564-77.05 77.049s34.564 77.049 77.049 77.049c27.848 0 52.292-14.852 65.83-37.05h329.123c22.056 0 40-17.944 40-40s-17.945-39.999-40-39.999zm-452.002 40c0-31.458 25.592-57.05 57.049-57.05s57.049 25.592 57.049 57.05c0 13.666-4.835 26.222-12.878 36.057-3.053-7.707-8.103-14.513-14.724-19.726 1.278-3.418 1.981-7.115 1.981-10.974v-10.715c0-17.33-14.099-31.428-31.429-31.428s-31.428 14.099-31.428 31.428v10.715c0 3.858.703 7.555 1.98 10.973-6.622 5.212-11.672 12.018-14.724 19.726-8.041-9.835-12.876-22.39-12.876-36.056zm45.621 5.357v-10.715c0-6.302 5.127-11.428 11.428-11.428 6.302 0 11.429 5.126 11.429 11.428v10.715c0 6.302-5.127 11.428-11.429 11.428-6.301.001-11.428-5.126-11.428-11.428zm-15.834 44.744c.94-7.164 4.741-13.752 10.443-18.215 4.867 3.097 10.635 4.899 16.818 4.899 6.191 0 11.965-1.807 16.836-4.91 5.769 4.461 9.52 10.975 10.436 18.221-8.107 4.431-17.399 6.953-27.271 6.953-9.867.001-19.157-2.52-27.262-6.948zm101.664-70.101h113.786v40h-113.786c1.717-6.382 2.648-13.083 2.648-20s-.931-13.618-2.648-20zm320.551 40h-186.766v-40h186.766c11.028 0 20 8.972 20 20s-8.972 20-20 20z"/><path d="m472.002 394.952h-329.123c-13.538-22.198-37.981-37.049-65.829-37.049-42.486 0-77.05 34.564-77.05 77.05s34.564 77.049 77.049 77.049c27.848 0 52.292-14.852 65.83-37.05h329.123c22.056 0 40-17.944 40-40s-17.945-40-40-40zm-452.002 40.001c0-31.458 25.592-57.05 57.049-57.05s57.049 25.592 57.049 57.05c0 13.666-4.835 26.222-12.878 36.057-3.053-7.707-8.103-14.513-14.724-19.726 1.278-3.418 1.981-7.115 1.981-10.974v-10.715c0-17.33-14.099-31.428-31.429-31.428s-31.428 14.099-31.428 31.428v10.715c0 3.858.703 7.555 1.98 10.973-6.622 5.212-11.672 12.018-14.724 19.726-8.041-9.835-12.876-22.391-12.876-36.056zm45.621 5.357v-10.715c0-6.302 5.127-11.428 11.428-11.428 6.302 0 11.429 5.126 11.429 11.428v10.715c0 6.302-5.127 11.428-11.429 11.428-6.301 0-11.428-5.127-11.428-11.428zm-15.834 44.744c.94-7.164 4.741-13.752 10.443-18.215 4.867 3.097 10.635 4.899 16.818 4.899 6.191 0 11.965-1.807 16.836-4.91 5.769 4.461 9.52 10.975 10.436 18.221-8.107 4.431-17.399 6.953-27.271 6.953-9.867 0-19.157-2.521-27.262-6.948zm101.664-70.102h58.786v40h-58.785c1.717-6.382 2.648-13.083 2.648-20-.001-6.916-.932-13.618-2.649-20zm320.551 40h-241.766v-40h241.766c11.028 0 20 8.972 20 20s-8.972 20-20 20z"/><path d="m275.228 97.05c-5.522 0-9.996 4.477-9.996 10s4.481 10 10.004 10 10-4.477 10-10-4.478-10-10-10z"/></g></g></svg>