<svg id="Layer_5" enable-background="new 0 0 64 64" height="512" viewBox="0 0 64 64" width="512" xmlns="http://www.w3.org/2000/svg"><g><g><g><path d="m58 26h-52c-2.21 0-4 1.79-4 4v28c0 2.21 1.79 4 4 4h52c2.21 0 4-1.79 4-4v-28c0-2.21-1.79-4-4-4z" fill="#969faa"/></g><g><path d="m49 58h-38c-.552 0-1-.448-1-1v-26c0-.552.448-1 1-1h38c.552 0 1 .448 1 1v26c0 .552-.448 1-1 1z" fill="#69d6f4"/></g><g><path d="m14 44h14v10h-14z" fill="#ff826e"/></g><g><path d="m32 44h14v10h-14z" fill="#ff826e"/></g><g><path d="m50 18v-7-5h12v12z" fill="#e6e9ed"/></g><g><path d="m14 16h10v24h-10z" fill="#d3a06c"/></g><g><path d="m25 6h-1v34h4 6v-20h6v-10z" fill="#fcd770"/></g><g><path d="m18 32h6v8h-6z" fill="#e6e9ed"/></g><g><path d="m34 20h12v20h-12z" fill="#ffeaa7"/></g><g><path d="m58 54.41v.59c0 .55-.45 1-1 1h-2c-.55 0-1-.45-1-1v-.59c0-.26.11-.52.29-.7l1.71-1.71 1.71 1.71c.18.18.29.44.29.7z" fill="#fcd770"/></g><g><path d="m58 43v2c0 .55-.45 1-1 1h-2c-.55 0-1-.45-1-1v-2c0-.55.45-1 1-1h2c.55 0 1 .45 1 1z" fill="#fcd770"/></g><g><path d="m57.71 34.29-1.71 1.71-1.71-1.71c-.18-.18-.29-.44-.29-.7v-.59c0-.55.45-1 1-1h2c.55 0 1 .45 1 1v.59c0 .26-.11.52-.29.7z" fill="#fcd770"/></g></g><g><path d="m5 39h2v6h-2z"/><path d="m5 47h2v2h-2z"/><path d="m55 57h2c1.103 0 2-.897 2-2v-.586c0-.534-.208-1.036-.586-1.414l-2.414-2.414-2.414 2.414c-.378.378-.586.88-.586 1.414v.586c0 1.103.897 2 2 2zm0-2.586 1-1 1 1v.586h-2z"/><path d="m55 47h2c1.103 0 2-.897 2-2v-2c0-1.103-.897-2-2-2h-2c-1.103 0-2 .897-2 2v2c0 1.103.897 2 2 2zm0-4 2-.001v2.001h-2z"/><path d="m56 37.414 2.414-2.414c.378-.378.586-.88.586-1.414v-.586c0-1.103-.897-2-2-2h-2c-1.103 0-2 .897-2 2v.586c0 .534.208 1.036.586 1.414zm-1-4.414 2-.001v.587l-1 1-1-1z"/><path d="m41 23h2v2h-2z"/><path d="m37 23h2v2h-2z"/><path d="m37 27h2v2h-2z"/><path d="m41 27h2v2h-2z"/><path d="m37 31h2v2h-2z"/><path d="m41 31h2v2h-2z"/><path d="m37 35h2v2h-2z"/><path d="m41 35h2v2h-2z"/><path d="m31 11h2v2h-2z"/><path d="m27 11h2v2h-2z"/><path d="m35 11h2v2h-2z"/><path d="m35 15h2v2h-2z"/><path d="m31 15h2v2h-2z"/><path d="m27 15h2v2h-2z"/><path d="m27 31h2v2h-2z"/><path d="m27 27h2v2h-2z"/><path d="m27 35h2v2h-2z"/><path d="m27 19h2v2h-2z"/><path d="m27 23h2v2h-2z"/><path d="m63 19v-14h-14v5h-3c-1.654 0-3 1.346-3 3v6h-2v-9.768l-4-1.067v-7.165h-2v6.632l-2-.533v-3.099h-2v2.565l-2-.533v-5.032h-2v4.498l-1.742-.465-2.258-.033v10h-10v4.586l-3.586-3.586h-.414v-6h-2v6h-2v-8h-2v8h-2v2h7.586l4.414 4.414v2.586h-7c-2.757 0-5 2.243-5 5v28c0 2.757 2.243 5 5 5h52c2.757 0 5-2.243 5-5v-28c0-2.757-2.243-5-5-5h-11v-6h-2v-6c0-.551.449-1 1-1h3v7zm-16 12h2v26h-38v-26h2v10h34zm-24 8h-4v-6h4zm22 0h-10v-18h10zm-6-28.232v8.232h-6v20h-8v-31.965zm-24 6.232h8v2h-6v2h6v2h-6v2h6v2h-6v2h6v2h-6v8h-2zm43 10c1.654 0 3 1.346 3 3v28c0 1.654-1.346 3-3 3h-52c-1.654 0-3-1.346-3-3v-28c0-1.654 1.346-3 3-3h7v2h-2c-1.103 0-2 .897-2 2v26c0 1.103.897 2 2 2h38c1.103 0 2-.897 2-2v-26c0-1.103-.897-2-2-2h-2v-2zm-7-20h10v10h-10z"/><path d="m53 9h6v2h-6z"/><path d="m53 13h6v2h-6z"/><path d="m47 43h-16v12h16zm-2 10h-12v-8h12z"/><path d="m13 55h16v-12h-16zm2-10h12v8h-12z"/></g></g></svg>